<svg xmlns="http://www.w3.org/2000/svg" xmlns:xlink="http://www.w3.org/1999/xlink" width="50" zoomAndPan="magnify" viewBox="0 0 37.5 37.499999" height="50" preserveAspectRatio="xMidYMid meet" version="1.0"><defs><clipPath id="e712d82174"><path d="M 0 0 L 37.007812 0 L 37.007812 37.007812 L 0 37.007812 Z M 0 0 " clip-rule="nonzero"/></clipPath><clipPath id="c4f0a71075"><path d="M 10.804688 0 L 28.566406 0 L 28.566406 37 L 10.804688 37 Z M 10.804688 0 " clip-rule="nonzero"/></clipPath></defs><g clip-path="url(#e712d82174)"><path fill="#ffffff" d="M 0 0 L 37.007812 0 L 37.007812 37.007812 L 0 37.007812 Z M 0 0 " fill-opacity="1" fill-rule="nonzero"/><path fill="#ffffff" d="M 0 0 L 37.007812 0 L 37.007812 37.007812 L 0 37.007812 Z M 0 0 " fill-opacity="1" fill-rule="nonzero"/></g><g clip-path="url(#c4f0a71075)"><path fill="#000000" d="M 24.253906 6.136719 L 28.289062 6.136719 L 28.289062 0.0546875 L 23.136719 0.0546875 L 23.136719 0.078125 C 16.367188 0.328125 14.96875 4.121094 14.851562 8.132812 L 14.835938 8.132812 L 14.835938 12.351562 L 10.804688 12.351562 L 10.804688 18.441406 L 14.835938 18.441406 L 14.835938 36.949219 L 22.074219 36.949219 L 22.074219 18.441406 L 27.265625 18.441406 L 28.289062 12.351562 L 22.074219 12.351562 L 22.074219 8.574219 C 22.074219 7.230469 22.976562 6.136719 24.253906 6.136719 Z M 24.253906 6.136719 " fill-opacity="1" fill-rule="nonzero"/></g></svg>