<svg xmlns="http://www.w3.org/2000/svg" xmlns:xlink="http://www.w3.org/1999/xlink" width="50" zoomAndPan="magnify" viewBox="0 0 37.5 37.499999" height="50" preserveAspectRatio="xMidYMid meet" version="1.0"><defs><clipPath id="a5eac61594"><path d="M 0 0 L 37.007812 0 L 37.007812 37.007812 L 0 37.007812 Z M 0 0 " clip-rule="nonzero"/></clipPath></defs><g clip-path="url(#a5eac61594)"><path fill="#ffffff" d="M 0 0 L 37.007812 0 L 37.007812 37.007812 L 0 37.007812 Z M 0 0 " fill-opacity="1" fill-rule="nonzero"/><path fill="#ffffff" d="M 0 0 L 37.007812 0 L 37.007812 37.007812 L 0 37.007812 Z M 0 0 " fill-opacity="1" fill-rule="nonzero"/></g><path fill="#000000" d="M 31.449219 31.292969 L 25.980469 31.292969 L 25.980469 22.78125 C 25.980469 20.75 25.941406 18.136719 23.136719 18.136719 C 20.328125 18.136719 19.851562 20.351562 19.851562 22.632812 L 19.851562 31.292969 L 14.378906 31.292969 L 14.378906 13.789062 L 19.632812 13.789062 L 19.632812 16.179688 L 19.703125 16.179688 C 20.773438 14.363281 22.765625 13.273438 24.886719 13.355469 C 30.429688 13.355469 31.453125 16.976562 31.453125 21.691406 L 31.453125 31.292969 Z M 8.210938 11.394531 C 6.457031 11.394531 5.039062 9.984375 5.035156 8.242188 C 5.035156 6.5 6.457031 5.089844 8.210938 5.085938 C 9.964844 5.085938 11.382812 6.496094 11.386719 8.238281 C 11.386719 9.984375 9.964844 11.394531 8.210938 11.394531 M 10.945312 31.292969 L 5.472656 31.292969 L 5.472656 13.789062 L 10.945312 13.789062 Z M 34.175781 0.0390625 L 2.722656 0.0390625 C 1.238281 0.0234375 0.015625 1.207031 0 2.683594 L 0 34.074219 C 0.015625 35.550781 1.238281 36.734375 2.722656 36.71875 L 34.175781 36.71875 C 35.667969 36.738281 36.890625 35.554688 36.914062 34.074219 L 36.914062 2.679688 C 36.890625 1.203125 35.667969 0.0195312 34.175781 0.0390625 " fill-opacity="1" fill-rule="nonzero"/></svg>