<svg xmlns="http://www.w3.org/2000/svg" xmlns:xlink="http://www.w3.org/1999/xlink" width="50" zoomAndPan="magnify" viewBox="0 0 37.5 37.499999" height="50" preserveAspectRatio="xMidYMid meet" version="1.0"><defs><clipPath id="bdd9fe6197"><path d="M 0 0 L 37.007812 0 L 37.007812 37.007812 L 0 37.007812 Z M 0 0 " clip-rule="nonzero"/></clipPath></defs><g clip-path="url(#bdd9fe6197)"><path fill="#ffffff" d="M 0 0 L 37.007812 0 L 37.007812 37.007812 L 0 37.007812 Z M 0 0 " fill-opacity="1" fill-rule="nonzero"/><path fill="#ffffff" d="M 0 0 L 37.007812 0 L 37.007812 37.007812 L 0 37.007812 Z M 0 0 " fill-opacity="1" fill-rule="nonzero"/></g><path fill="#000000" d="M 31.609375 5.394531 C 28.132812 1.933594 23.507812 0.0234375 18.578125 0.0234375 C 8.421875 0.0234375 0.15625 8.238281 0.15625 18.339844 C 0.15625 21.570312 1 24.722656 2.613281 27.5 L 0 36.992188 L 9.765625 34.445312 C 12.457031 35.90625 15.488281 36.671875 18.570312 36.675781 L 18.578125 36.675781 C 28.730469 36.675781 37 28.457031 37 18.355469 C 37 13.460938 35.089844 8.859375 31.609375 5.394531 Z M 18.578125 33.582031 L 18.574219 33.582031 C 15.828125 33.582031 13.128906 32.847656 10.777344 31.457031 L 10.21875 31.128906 L 4.421875 32.640625 L 5.96875 27.019531 L 5.605469 26.445312 C 4.070312 24.019531 3.261719 21.21875 3.265625 18.339844 C 3.269531 9.945312 10.136719 3.113281 18.585938 3.113281 C 22.675781 3.113281 26.519531 4.703125 29.410156 7.582031 C 32.300781 10.457031 33.890625 14.285156 33.890625 18.351562 C 33.886719 26.75 27.015625 33.582031 18.578125 33.582031 Z M 26.976562 22.175781 C 26.519531 21.949219 24.253906 20.839844 23.832031 20.691406 C 23.410156 20.535156 23.105469 20.460938 22.796875 20.917969 C 22.492188 21.378906 21.609375 22.40625 21.339844 22.714844 C 21.070312 23.019531 20.804688 23.058594 20.339844 22.828125 C 19.882812 22.597656 18.398438 22.113281 16.640625 20.554688 C 15.269531 19.339844 14.347656 17.839844 14.078125 17.382812 C 13.808594 16.925781 14.050781 16.675781 14.28125 16.449219 C 14.488281 16.242188 14.738281 15.914062 14.972656 15.644531 C 15.203125 15.378906 15.277344 15.1875 15.429688 14.882812 C 15.585938 14.578125 15.507812 14.308594 15.394531 14.078125 C 15.277344 13.851562 14.359375 11.597656 13.972656 10.679688 C 13.601562 9.789062 13.21875 9.910156 12.9375 9.894531 C 12.671875 9.882812 12.363281 9.878906 12.054688 9.878906 C 11.75 9.878906 11.25 9.992188 10.828125 10.449219 C 10.40625 10.910156 9.21875 12.015625 9.21875 14.269531 C 9.21875 16.523438 10.867188 18.699219 11.097656 19.007812 C 11.328125 19.3125 14.34375 23.933594 18.960938 25.917969 C 20.058594 26.390625 20.917969 26.671875 21.589844 26.882812 C 22.691406 27.230469 23.695312 27.183594 24.488281 27.0625 C 25.371094 26.933594 27.210938 25.957031 27.59375 24.886719 C 27.976562 23.816406 27.976562 22.902344 27.863281 22.710938 C 27.746094 22.519531 27.441406 22.40625 26.980469 22.175781 Z M 26.976562 22.175781 " fill-opacity="1" fill-rule="evenodd"/></svg>