<svg xmlns="http://www.w3.org/2000/svg" xmlns:xlink="http://www.w3.org/1999/xlink" width="50" zoomAndPan="magnify" viewBox="0 0 37.5 37.499999" height="50" preserveAspectRatio="xMidYMid meet" version="1.0"><path fill="#4b1c71" d="M 36.640625 23.644531 C 36.71875 23.453125 36.695312 23.242188 36.582031 23.074219 C 36.464844 22.90625 36.277344 22.804688 36.074219 22.804688 L 0.632812 22.804688 C 0.429688 22.804688 0.238281 22.90625 0.125 23.074219 C 0.0117188 23.242188 -0.0117188 23.453125 0.0664062 23.644531 L 5.128906 36.300781 C 5.21875 36.53125 5.445312 36.6875 5.695312 36.6875 L 31.011719 36.6875 C 31.261719 36.6875 31.484375 36.53125 31.578125 36.300781 Z M 1.539062 24.027344 L 6.109375 35.460938 L 30.59375 35.460938 L 35.167969 24.027344 Z M 1.539062 24.027344 " fill-opacity="1" fill-rule="evenodd"/><path fill="#4b1c71" d="M 22 28.679688 C 22.0625 28.492188 22.035156 28.285156 21.917969 28.125 C 21.804688 27.960938 21.617188 27.867188 21.417969 27.867188 L 15.285156 27.867188 C 15.085938 27.867188 14.902344 27.960938 14.789062 28.125 C 14.671875 28.285156 14.640625 28.492188 14.707031 28.679688 L 15.582031 31.210938 C 15.667969 31.457031 15.902344 31.621094 16.160156 31.621094 L 20.542969 31.621094 C 20.804688 31.621094 21.039062 31.457031 21.121094 31.210938 Z M 16.144531 29.089844 L 16.597656 30.398438 L 20.105469 30.398438 L 20.558594 29.089844 Z M 16.144531 29.089844 " fill-opacity="1" fill-rule="evenodd"/><path fill="#4b1c71" d="M 31.621094 23.414062 C 31.621094 18.183594 27.382812 13.941406 22.152344 13.941406 C 19.691406 13.941406 17.015625 13.941406 14.554688 13.941406 C 9.324219 13.941406 5.082031 18.183594 5.082031 23.414062 C 5.082031 23.753906 5.359375 24.027344 5.695312 24.027344 L 31.011719 24.027344 C 31.347656 24.027344 31.621094 23.753906 31.621094 23.414062 Z M 30.375 22.804688 C 30.0625 18.535156 26.5 15.167969 22.152344 15.167969 C 19.691406 15.167969 17.015625 15.167969 14.554688 15.167969 C 10.203125 15.167969 6.640625 18.535156 6.328125 22.804688 Z M 30.375 22.804688 " fill-opacity="1" fill-rule="evenodd"/><path fill="#4b1c71" d="M 18.351562 0.0195312 C 14.171875 0.0195312 10.777344 3.414062 10.777344 7.59375 C 10.777344 11.773438 14.171875 15.167969 18.351562 15.167969 C 22.535156 15.167969 25.925781 11.773438 25.925781 7.59375 C 25.925781 3.414062 22.535156 0.0195312 18.351562 0.0195312 Z M 18.351562 1.246094 C 21.859375 1.246094 24.703125 4.089844 24.703125 7.59375 C 24.703125 11.097656 21.859375 13.941406 18.351562 13.941406 C 14.847656 13.941406 12.003906 11.097656 12.003906 7.59375 C 12.003906 4.089844 14.847656 1.246094 18.351562 1.246094 Z M 18.351562 1.246094 " fill-opacity="1" fill-rule="evenodd"/></svg>