<svg xmlns="http://www.w3.org/2000/svg" xmlns:xlink="http://www.w3.org/1999/xlink" width="50" zoomAndPan="magnify" viewBox="0 0 37.5 37.499999" height="50" preserveAspectRatio="xMidYMid meet" version="1.0"><defs><clipPath id="c6a3aa3b6a"><path d="M 0.375 4.542969 L 36.640625 4.542969 L 36.640625 32.667969 L 0.375 32.667969 Z M 0.375 4.542969 " clip-rule="nonzero"/></clipPath></defs><g clip-path="url(#c6a3aa3b6a)"><path fill="#4b1c71" d="M 32 4.539062 L 19.933594 4.539062 C 19.636719 4.539062 19.34375 4.566406 19.050781 4.625 C 18.761719 4.683594 18.476562 4.769531 18.203125 4.882812 C 17.929688 4.996094 17.667969 5.132812 17.421875 5.300781 C 17.175781 5.464844 16.945312 5.652344 16.738281 5.859375 C 16.527344 6.070312 16.339844 6.296875 16.175781 6.542969 C 16.007812 6.789062 15.871094 7.050781 15.757812 7.324219 C 15.640625 7.597656 15.554688 7.882812 15.5 8.171875 C 15.441406 8.464844 15.410156 8.757812 15.410156 9.054688 L 15.410156 11.550781 L 5.046875 11.550781 C 4.75 11.550781 4.457031 11.578125 4.164062 11.636719 C 3.875 11.695312 3.589844 11.78125 3.316406 11.894531 C 3.042969 12.007812 2.78125 12.148438 2.535156 12.3125 C 2.289062 12.480469 2.0625 12.667969 1.851562 12.875 C 1.640625 13.085938 1.453125 13.316406 1.289062 13.5625 C 1.125 13.808594 0.984375 14.070312 0.871094 14.34375 C 0.757812 14.617188 0.671875 14.898438 0.613281 15.191406 C 0.558594 15.480469 0.527344 15.777344 0.527344 16.074219 L 0.527344 22.929688 C 0.527344 23.472656 0.625 24 0.816406 24.511719 C 1.007812 25.019531 1.28125 25.480469 1.640625 25.894531 C 1.996094 26.304688 2.417969 26.640625 2.894531 26.898438 C 3.375 27.160156 3.882812 27.324219 4.421875 27.402344 L 4.421875 31.804688 C 4.425781 32.046875 4.53125 32.230469 4.746094 32.347656 C 4.960938 32.464844 5.171875 32.457031 5.378906 32.328125 L 13.113281 27.441406 L 17.140625 27.441406 C 17.4375 27.441406 17.730469 27.410156 18.019531 27.351562 C 18.308594 27.292969 18.589844 27.207031 18.863281 27.09375 C 19.136719 26.980469 19.394531 26.839844 19.640625 26.675781 C 19.882812 26.511719 20.109375 26.324219 20.320312 26.113281 C 20.527344 25.90625 20.714844 25.675781 20.878906 25.429688 C 21.042969 25.183594 21.179688 24.925781 21.292969 24.652344 C 21.40625 24.378906 21.492188 24.097656 21.546875 23.808594 C 21.605469 23.515625 21.632812 23.226562 21.632812 22.929688 L 21.632812 20.433594 L 23.953125 20.433594 L 31.65625 25.308594 C 31.757812 25.371094 31.871094 25.402344 31.988281 25.40625 C 32.097656 25.40625 32.199219 25.378906 32.292969 25.328125 C 32.507812 25.210938 32.613281 25.027344 32.613281 24.78125 L 32.613281 20.382812 C 33.152344 20.308594 33.664062 20.140625 34.140625 19.878906 C 34.621094 19.621094 35.039062 19.285156 35.398438 18.875 C 35.753906 18.464844 36.027344 18.003906 36.21875 17.492188 C 36.410156 16.984375 36.507812 16.457031 36.507812 15.910156 L 36.507812 9.054688 C 36.507812 8.757812 36.476562 8.464844 36.421875 8.175781 C 36.363281 7.882812 36.277344 7.601562 36.164062 7.328125 C 36.050781 7.054688 35.910156 6.796875 35.746094 6.550781 C 35.582031 6.304688 35.394531 6.074219 35.183594 5.867188 C 34.976562 5.65625 34.75 5.46875 34.503906 5.304688 C 34.257812 5.140625 33.996094 5 33.722656 4.886719 C 33.449219 4.773438 33.167969 4.6875 32.878906 4.628906 C 32.585938 4.570312 32.292969 4.539062 32 4.539062 Z M 20.386719 22.929688 C 20.386719 23.363281 20.300781 23.777344 20.136719 24.179688 C 19.972656 24.578125 19.734375 24.929688 19.429688 25.238281 C 19.121094 25.542969 18.769531 25.78125 18.371094 25.945312 C 17.96875 26.109375 17.554688 26.195312 17.121094 26.195312 L 12.914062 26.195312 C 12.792969 26.195312 12.679688 26.226562 12.578125 26.296875 L 5.675781 30.667969 L 5.675781 26.800781 C 5.675781 26.628906 5.613281 26.484375 5.492188 26.359375 C 5.371094 26.238281 5.222656 26.179688 5.050781 26.179688 C 4.617188 26.179688 4.199219 26.09375 3.800781 25.929688 C 3.402344 25.761719 3.046875 25.527344 2.742188 25.222656 C 2.433594 24.914062 2.199219 24.5625 2.03125 24.160156 C 1.867188 23.761719 1.78125 23.34375 1.78125 22.914062 L 1.78125 16.074219 C 1.78125 15.640625 1.867188 15.222656 2.03125 14.824219 C 2.199219 14.421875 2.433594 14.070312 2.742188 13.765625 C 3.046875 13.457031 3.402344 13.222656 3.800781 13.054688 C 4.199219 12.890625 4.617188 12.808594 5.050781 12.808594 L 17.117188 12.808594 C 17.550781 12.808594 17.964844 12.890625 18.367188 13.054688 C 18.765625 13.222656 19.117188 13.457031 19.425781 13.765625 C 19.730469 14.070312 19.964844 14.421875 20.132812 14.824219 C 20.296875 15.222656 20.382812 15.640625 20.382812 16.074219 Z M 35.269531 15.910156 C 35.265625 16.34375 35.183594 16.761719 35.015625 17.160156 C 34.851562 17.558594 34.613281 17.914062 34.308594 18.21875 C 34 18.523438 33.648438 18.761719 33.25 18.925781 C 32.847656 19.09375 32.429688 19.175781 32 19.175781 C 31.824219 19.175781 31.679688 19.238281 31.558594 19.359375 C 31.433594 19.480469 31.375 19.628906 31.375 19.800781 L 31.375 23.648438 L 24.46875 19.277344 C 24.367188 19.207031 24.253906 19.175781 24.128906 19.175781 L 21.632812 19.175781 L 21.632812 16.074219 C 21.632812 15.777344 21.605469 15.484375 21.546875 15.191406 C 21.488281 14.902344 21.402344 14.621094 21.289062 14.347656 C 21.175781 14.070312 21.039062 13.8125 20.871094 13.566406 C 20.707031 13.320312 20.519531 13.089844 20.3125 12.882812 C 20.101562 12.671875 19.875 12.484375 19.628906 12.320312 C 19.382812 12.15625 19.121094 12.015625 18.847656 11.902344 C 18.574219 11.789062 18.292969 11.703125 18 11.644531 C 17.710938 11.589844 17.417969 11.558594 17.121094 11.558594 L 16.660156 11.558594 L 16.660156 9.0625 C 16.660156 8.628906 16.742188 8.214844 16.910156 7.8125 C 17.074219 7.414062 17.308594 7.058594 17.617188 6.753906 C 17.921875 6.449219 18.277344 6.210938 18.675781 6.046875 C 19.074219 5.878906 19.492188 5.796875 19.925781 5.796875 L 31.988281 5.796875 C 32.421875 5.796875 32.839844 5.878906 33.238281 6.046875 C 33.640625 6.210938 33.992188 6.449219 34.300781 6.753906 C 34.605469 7.058594 34.84375 7.414062 35.007812 7.8125 C 35.175781 8.210938 35.257812 8.628906 35.261719 9.0625 Z M 35.269531 15.910156 " fill-opacity="1" fill-rule="nonzero"/></g><path fill="#4b1c71" d="M 11.640625 15.355469 C 11.527344 15.128906 11.339844 15.011719 11.082031 15.011719 C 10.828125 15.011719 10.640625 15.128906 10.527344 15.355469 L 6.675781 22.9375 C 6.589844 23.09375 6.570312 23.253906 6.621094 23.425781 C 6.671875 23.597656 6.777344 23.722656 6.9375 23.804688 C 7.09375 23.882812 7.257812 23.894531 7.425781 23.835938 C 7.59375 23.777344 7.714844 23.664062 7.789062 23.503906 L 9.117188 20.890625 L 13.050781 20.890625 L 14.363281 23.503906 C 14.433594 23.664062 14.554688 23.777344 14.722656 23.835938 C 14.890625 23.894531 15.054688 23.882812 15.214844 23.804688 C 15.375 23.722656 15.476562 23.597656 15.53125 23.425781 C 15.582031 23.253906 15.5625 23.09375 15.472656 22.9375 Z M 9.75 19.640625 L 11.082031 17.015625 L 12.414062 19.640625 Z M 9.75 19.640625 " fill-opacity="1" fill-rule="nonzero"/><path fill="#4b1c71" d="M 29.609375 15.414062 L 27.175781 13.777344 C 27.679688 12.976562 28.097656 12.132812 28.425781 11.246094 L 29.257812 11.246094 C 29.429688 11.246094 29.574219 11.1875 29.699219 11.0625 C 29.820312 10.941406 29.878906 10.792969 29.878906 10.621094 C 29.878906 10.449219 29.820312 10.304688 29.699219 10.179688 C 29.574219 10.058594 29.429688 10 29.257812 10 L 26.734375 10 L 26.734375 8.699219 C 26.734375 8.527344 26.675781 8.378906 26.550781 8.257812 C 26.429688 8.136719 26.285156 8.078125 26.109375 8.078125 C 25.9375 8.078125 25.792969 8.136719 25.671875 8.257812 C 25.546875 8.378906 25.488281 8.527344 25.488281 8.699219 L 25.488281 10 L 22.683594 10 C 22.511719 10 22.363281 10.058594 22.242188 10.179688 C 22.121094 10.304688 22.058594 10.449219 22.058594 10.621094 C 22.058594 10.792969 22.121094 10.941406 22.242188 11.0625 C 22.363281 11.1875 22.511719 11.246094 22.683594 11.246094 L 27.097656 11.246094 C 26.832031 11.882812 26.511719 12.492188 26.140625 13.074219 L 24.570312 12.015625 C 24.425781 11.917969 24.265625 11.886719 24.09375 11.921875 C 23.925781 11.957031 23.789062 12.046875 23.695312 12.195312 C 23.597656 12.339844 23.566406 12.5 23.601562 12.671875 C 23.636719 12.84375 23.726562 12.976562 23.871094 13.074219 L 25.421875 14.113281 C 24.933594 14.726562 24.398438 15.289062 23.808594 15.804688 C 23.679688 15.921875 23.613281 16.066406 23.601562 16.238281 C 23.59375 16.410156 23.644531 16.5625 23.757812 16.691406 C 23.875 16.820312 24.015625 16.890625 24.191406 16.898438 C 24.363281 16.910156 24.511719 16.855469 24.644531 16.742188 C 25.3125 16.15625 25.921875 15.511719 26.46875 14.8125 L 28.921875 16.476562 C 29.027344 16.546875 29.144531 16.582031 29.269531 16.582031 C 29.574219 16.578125 29.773438 16.433594 29.863281 16.140625 C 29.953125 15.847656 29.871094 15.613281 29.617188 15.441406 Z M 29.609375 15.414062 " fill-opacity="1" fill-rule="nonzero"/></svg>