<svg xmlns="http://www.w3.org/2000/svg" xmlns:xlink="http://www.w3.org/1999/xlink" width="50" zoomAndPan="magnify" viewBox="0 0 37.5 37.499999" height="50" preserveAspectRatio="xMidYMid meet" version="1.0"><defs><clipPath id="8a32e18367"><path d="M 0 0 L 37.007812 0 L 37.007812 37.007812 L 0 37.007812 Z M 0 0 " clip-rule="nonzero"/></clipPath><clipPath id="76a6ebd3bc"><path d="M 0 0 L 37.007812 0 L 37.007812 37.007812 L 0 37.007812 Z M 0 0 " clip-rule="nonzero"/></clipPath></defs><g clip-path="url(#8a32e18367)"><path fill="#ffffff" d="M 0 0 L 37.007812 0 L 37.007812 37.007812 L 0 37.007812 Z M 0 0 " fill-opacity="1" fill-rule="nonzero"/><path fill="#ffffff" d="M 0 0 L 37.007812 0 L 37.007812 37.007812 L 0 37.007812 Z M 0 0 " fill-opacity="1" fill-rule="nonzero"/></g><path fill="#000000" d="M 18.378906 18.628906 C 19.710938 18.628906 20.707031 18.210938 21.289062 17.960938 C 21.621094 17.878906 21.789062 17.628906 21.539062 17.296875 L 21.121094 16.632812 C 20.957031 16.382812 20.707031 16.382812 20.457031 16.550781 C 19.957031 16.964844 19.128906 17.214844 18.296875 17.214844 C 15.632812 17.214844 13.636719 15.21875 13.636719 12.558594 C 13.636719 9.894531 15.800781 7.734375 18.460938 7.734375 C 21.457031 7.734375 23.117188 9.8125 23.117188 12.558594 C 23.117188 13.886719 22.535156 14.800781 21.953125 14.800781 C 21.621094 14.800781 21.457031 14.636719 21.457031 14.136719 L 21.457031 11.226562 C 21.457031 10.894531 21.539062 10.394531 21.703125 10.0625 L 21.703125 9.980469 C 21.871094 9.648438 21.621094 9.398438 21.289062 9.398438 L 20.125 9.398438 C 19.792969 9.398438 19.542969 9.5625 19.625 9.730469 C 19.710938 9.894531 19.542969 9.894531 19.292969 9.648438 C 18.960938 9.398438 18.460938 9.148438 17.796875 9.148438 C 16.050781 9.148438 14.886719 10.644531 14.886719 12.472656 C 14.886719 14.46875 16.382812 15.800781 17.960938 15.800781 C 18.628906 15.800781 19.210938 15.550781 19.710938 15.136719 C 19.957031 14.886719 20.125 14.71875 20.125 14.800781 C 20.125 14.886719 20.125 14.886719 20.125 14.886719 C 20.292969 15.632812 20.957031 15.96875 21.789062 15.96875 C 23.367188 15.96875 24.53125 14.554688 24.53125 12.472656 C 24.53125 8.980469 21.953125 6.402344 18.460938 6.402344 C 14.96875 6.402344 12.226562 9.066406 12.226562 12.558594 C 12.308594 16.050781 14.886719 18.628906 18.378906 18.628906 Z M 18.296875 14.304688 C 17.464844 14.304688 16.964844 13.472656 16.964844 12.558594 C 16.964844 11.640625 17.464844 10.894531 18.296875 10.894531 C 19.210938 10.894531 19.710938 11.640625 19.710938 12.558594 C 19.710938 13.554688 19.128906 14.304688 18.296875 14.304688 Z M 18.296875 14.304688 " fill-opacity="1" fill-rule="nonzero"/><g clip-path="url(#76a6ebd3bc)"><path fill="#000000" d="M 36.921875 15.46875 C 36.921875 15.300781 36.839844 15.21875 36.839844 15.136719 C 36.757812 15.050781 36.757812 14.96875 36.675781 14.886719 L 31.519531 10.644531 L 31.519531 2.992188 C 31.519531 2.496094 31.183594 2.164062 30.6875 2.164062 L 21.289062 2.164062 L 18.960938 0.25 C 18.628906 0 18.210938 0 17.878906 0.25 L 15.550781 2.164062 L 6.238281 2.164062 C 5.738281 2.164062 5.40625 2.496094 5.40625 2.992188 L 5.40625 10.644531 L 0.25 14.886719 C 0.167969 14.96875 0.0820312 15.050781 0.0820312 15.136719 C 0.0820312 15.21875 0 15.300781 0 15.382812 C 0 15.382812 0 15.46875 0 15.46875 C 0 15.46875 0 15.46875 0 15.550781 L 0 36.175781 C 0 36.675781 0.332031 37.007812 0.832031 37.007812 L 36.175781 37.007812 C 36.675781 37.007812 37.007812 36.675781 37.007812 36.175781 L 36.921875 15.46875 C 37.007812 15.46875 36.921875 15.46875 36.921875 15.46875 Z M 35.34375 16.882812 L 35.34375 29.191406 L 25.03125 22.203125 Z M 34.59375 15.382812 L 31.519531 16.964844 L 31.519531 12.808594 Z M 18.460938 1.996094 L 18.710938 2.164062 L 18.210938 2.164062 Z M 29.855469 3.824219 L 29.855469 17.796875 L 18.460938 23.699219 L 7.070312 17.878906 L 7.070312 3.824219 Z M 1.664062 16.882812 L 11.976562 22.203125 L 1.664062 29.191406 Z M 5.40625 16.964844 L 2.328125 15.382812 L 5.40625 12.808594 Z M 1.664062 35.34375 L 1.664062 31.183594 L 13.636719 23.035156 L 18.128906 25.363281 C 18.378906 25.445312 18.628906 25.445312 18.878906 25.363281 L 23.367188 23.035156 L 35.34375 31.183594 L 35.34375 35.34375 Z M 1.664062 35.34375 " fill-opacity="1" fill-rule="nonzero"/></g></svg>