<svg xmlns="http://www.w3.org/2000/svg" xmlns:xlink="http://www.w3.org/1999/xlink" width="50" zoomAndPan="magnify" viewBox="0 0 37.5 37.499999" height="50" preserveAspectRatio="xMidYMid meet" version="1.0"><defs><clipPath id="3723fbfd2a"><path d="M 0 0 L 37.007812 0 L 37.007812 37.007812 L 0 37.007812 Z M 0 0 " clip-rule="nonzero"/></clipPath></defs><g clip-path="url(#3723fbfd2a)"><path fill="#4b1c71" d="M 36.28125 15.964844 L 33.75 15.964844 C 33.367188 13.640625 32.453125 11.4375 31.078125 9.519531 L 32.871094 7.730469 C 33.152344 7.445312 33.152344 6.984375 32.871094 6.703125 L 30.304688 4.136719 C 30.019531 3.851562 29.5625 3.851562 29.277344 4.136719 L 27.488281 5.925781 C 25.570312 4.554688 23.363281 3.640625 21.042969 3.253906 L 21.042969 0.726562 C 21.042969 0.324219 20.71875 0 20.316406 0 L 16.6875 0 C 16.289062 0 15.964844 0.324219 15.964844 0.726562 L 15.964844 3.253906 C 13.640625 3.640625 11.4375 4.554688 9.519531 5.925781 L 7.730469 4.136719 C 7.445312 3.851562 6.984375 3.851562 6.703125 4.136719 L 4.136719 6.703125 C 3.851562 6.984375 3.851562 7.445312 4.136719 7.730469 L 5.925781 9.519531 C 4.554688 11.4375 3.640625 13.640625 3.253906 15.964844 L 0.726562 15.964844 C 0.324219 15.964844 0 16.289062 0 16.6875 L 0 20.316406 C 0 20.71875 0.324219 21.042969 0.726562 21.042969 L 3.253906 21.042969 C 3.640625 23.363281 4.554688 25.570312 5.925781 27.488281 L 4.136719 29.277344 C 3.851562 29.5625 3.851562 30.019531 4.136719 30.304688 L 6.703125 32.871094 C 6.984375 33.152344 7.445312 33.152344 7.730469 32.871094 L 9.542969 31.054688 C 10.542969 31.632812 11.988281 32.113281 13.140625 32.515625 C 13.398438 33.429688 14.242188 34.105469 15.238281 34.105469 L 15.3125 34.105469 C 15.648438 35.757812 17.113281 37.007812 18.867188 37.007812 C 20.617188 37.007812 22.085938 35.757812 22.421875 34.105469 L 22.496094 34.105469 C 23.40625 34.105469 24.1875 33.542969 24.511719 32.746094 C 25.558594 32.304688 26.558594 31.746094 27.488281 31.078125 L 29.277344 32.871094 C 29.5625 33.152344 30.019531 33.152344 30.304688 32.871094 L 32.871094 30.304688 C 33.152344 30.019531 33.152344 29.5625 32.871094 29.277344 L 31.078125 27.488281 C 32.453125 25.570312 33.367188 23.363281 33.75 21.042969 L 36.28125 21.042969 C 36.683594 21.042969 37.007812 20.71875 37.007812 20.316406 L 37.007812 16.6875 C 37.007812 16.289062 36.683594 15.964844 36.28125 15.964844 Z M 21.820312 29.75 L 19.589844 29.75 L 19.589844 22.402344 C 20.84375 22.078125 21.769531 20.941406 21.769531 19.589844 C 21.769531 17.992188 20.464844 16.6875 18.867188 16.6875 C 17.265625 16.6875 15.964844 17.992188 15.964844 19.589844 C 15.964844 20.941406 16.890625 22.078125 18.140625 22.402344 L 18.140625 29.75 L 15.933594 29.75 C 15.730469 26.246094 14.507812 22.851562 12.378906 19.890625 C 11.386719 18.511719 10.871094 16.878906 10.882812 15.167969 C 10.921875 10.867188 14.449219 7.320312 18.75 7.257812 C 20.902344 7.226562 22.9375 8.042969 24.46875 9.554688 C 27.351562 12.394531 27.570312 16.785156 25.363281 19.875 C 23.300781 22.761719 22.082031 26.164062 21.820312 29.75 Z M 18.867188 21.042969 C 18.066406 21.042969 17.414062 20.390625 17.414062 19.589844 C 17.414062 18.792969 18.066406 18.140625 18.867188 18.140625 C 19.667969 18.140625 20.316406 18.792969 20.316406 19.589844 C 20.316406 20.390625 19.667969 21.042969 18.867188 21.042969 Z M 18.867188 35.554688 C 17.921875 35.554688 17.113281 34.949219 16.8125 34.105469 L 20.917969 34.105469 C 20.617188 34.949219 19.8125 35.554688 18.867188 35.554688 Z M 22.496094 32.652344 C 21.957031 32.652344 16.289062 32.652344 15.238281 32.652344 C 14.839844 32.652344 14.515625 32.332031 14.511719 31.933594 C 14.492188 31.578125 14.808594 31.203125 15.238281 31.203125 C 15.714844 31.203125 22.046875 31.203125 22.507812 31.203125 C 22.902344 31.210938 23.21875 31.53125 23.21875 31.925781 C 23.21875 32.328125 22.894531 32.652344 22.496094 32.652344 Z M 35.554688 19.589844 L 33.121094 19.589844 C 32.753906 19.589844 32.445312 19.863281 32.402344 20.230469 C 32.09375 22.734375 31.109375 25.113281 29.550781 27.109375 C 29.324219 27.398438 29.351562 27.8125 29.609375 28.070312 L 31.332031 29.792969 L 29.792969 31.332031 L 28.070312 29.609375 C 27.8125 29.351562 27.398438 29.324219 27.109375 29.550781 C 26.304688 30.179688 25.441406 30.714844 24.527344 31.148438 C 24.304688 30.570312 23.84375 30.113281 23.265625 29.890625 C 23.503906 26.558594 24.628906 23.398438 26.546875 20.71875 C 29.148438 17.074219 28.898438 11.882812 25.488281 8.519531 C 23.707031 6.765625 21.363281 5.804688 18.867188 5.804688 C 13.675781 5.804688 9.476562 10.023438 9.433594 15.15625 C 9.417969 17.175781 10.027344 19.105469 11.203125 20.738281 C 13.179688 23.488281 14.308594 26.636719 14.488281 29.882812 C 13.941406 30.085938 13.5 30.496094 13.261719 31.019531 C 12.046875 30.601562 10.582031 30.085938 9.894531 29.550781 C 9.605469 29.324219 9.195312 29.351562 8.9375 29.609375 L 7.214844 31.332031 L 5.675781 29.792969 L 7.398438 28.070312 C 7.65625 27.8125 7.679688 27.398438 7.457031 27.109375 C 5.898438 25.113281 4.910156 22.734375 4.605469 20.230469 C 4.558594 19.863281 4.25 19.589844 3.882812 19.589844 L 1.453125 19.589844 L 1.453125 17.414062 L 3.882812 17.414062 C 4.25 17.414062 4.558594 17.140625 4.605469 16.777344 C 4.910156 14.269531 5.898438 11.890625 7.457031 9.894531 C 7.679688 9.609375 7.65625 9.195312 7.398438 8.9375 L 5.675781 7.214844 L 7.214844 5.675781 L 8.9375 7.398438 C 9.195312 7.65625 9.605469 7.679688 9.894531 7.457031 C 11.890625 5.898438 14.269531 4.910156 16.777344 4.605469 C 17.140625 4.558594 17.414062 4.25 17.414062 3.882812 L 17.414062 1.453125 L 19.589844 1.453125 L 19.589844 3.882812 C 19.589844 4.25 19.867188 4.558594 20.230469 4.605469 C 22.734375 4.910156 25.113281 5.898438 27.109375 7.457031 C 27.398438 7.679688 27.8125 7.65625 28.070312 7.398438 L 29.792969 5.675781 L 31.332031 7.214844 L 29.609375 8.9375 C 29.351562 9.195312 29.324219 9.605469 29.550781 9.894531 C 31.109375 11.890625 32.09375 14.269531 32.402344 16.777344 C 32.445312 17.140625 32.753906 17.414062 33.121094 17.414062 L 35.554688 17.414062 Z M 35.554688 19.589844 " fill-opacity="1" fill-rule="nonzero"/></g></svg>