<svg xmlns="http://www.w3.org/2000/svg" xmlns:xlink="http://www.w3.org/1999/xlink" width="50" zoomAndPan="magnify" viewBox="0 0 37.5 37.499999" height="50" preserveAspectRatio="xMidYMid meet" version="1.0"><defs><clipPath id="24168a050e"><path d="M 0 0 L 37.007812 0 L 37.007812 37.007812 L 0 37.007812 Z M 0 0 " clip-rule="nonzero"/></clipPath><clipPath id="97aec65e1d"><path d="M 3.699219 0 L 33.304688 0 L 33.304688 37 L 3.699219 37 Z M 3.699219 0 " clip-rule="nonzero"/></clipPath></defs><g clip-path="url(#24168a050e)"><path fill="#ffffff" d="M 0 0 L 37.007812 0 L 37.007812 37.007812 L 0 37.007812 Z M 0 0 " fill-opacity="1" fill-rule="nonzero"/><path fill="#ffffff" d="M 0 0 L 37.007812 0 L 37.007812 37.007812 L 0 37.007812 Z M 0 0 " fill-opacity="1" fill-rule="nonzero"/></g><g clip-path="url(#97aec65e1d)"><path fill="#000000" d="M 24.171875 0.0351562 L 8.664062 0.0351562 C 5.925781 0.0351562 3.695312 2.261719 3.695312 5.003906 L 3.695312 32.003906 C 3.695312 34.742188 5.925781 36.972656 8.664062 36.972656 L 28.34375 36.972656 C 31.082031 36.972656 33.3125 34.742188 33.3125 32.003906 L 33.3125 10.246094 Z M 24.898438 4.773438 L 29.074219 9.4375 L 24.898438 9.4375 Z M 28.339844 34.351562 L 8.664062 34.351562 C 7.367188 34.351562 6.316406 33.296875 6.316406 32.003906 L 6.316406 5.003906 C 6.316406 3.707031 7.367188 2.652344 8.664062 2.652344 L 22.277344 2.652344 L 22.277344 12.058594 L 30.691406 12.058594 L 30.691406 32.003906 C 30.691406 33.296875 29.636719 34.351562 28.339844 34.351562 Z M 28.339844 34.351562 " fill-opacity="1" fill-rule="nonzero"/></g><path fill="#000000" d="M 9.125 26.515625 L 27.878906 26.515625 L 27.878906 29.136719 L 9.125 29.136719 Z M 9.125 26.515625 " fill-opacity="1" fill-rule="nonzero"/><path fill="#000000" d="M 9.125 20.824219 L 27.878906 20.824219 L 27.878906 23.441406 L 9.125 23.441406 Z M 9.125 20.824219 " fill-opacity="1" fill-rule="nonzero"/><path fill="#000000" d="M 9.125 15.132812 L 27.878906 15.132812 L 27.878906 17.75 L 9.125 17.75 Z M 9.125 15.132812 " fill-opacity="1" fill-rule="nonzero"/></svg>