<svg xmlns="http://www.w3.org/2000/svg" xmlns:xlink="http://www.w3.org/1999/xlink" width="50" zoomAndPan="magnify" viewBox="0 0 37.5 37.499999" height="50" preserveAspectRatio="xMidYMid meet" version="1.0"><defs><clipPath id="2451138f2c"><path d="M 0 0 L 37.007812 0 L 37.007812 37.007812 L 0 37.007812 Z M 0 0 " clip-rule="nonzero"/></clipPath><clipPath id="13814de056"><path d="M 1.058594 0 L 35.84375 0 L 35.84375 36.75 L 1.058594 36.75 Z M 1.058594 0 " clip-rule="nonzero"/></clipPath></defs><g clip-path="url(#2451138f2c)"><path fill="#ffffff" d="M 0 0 L 37.007812 0 L 37.007812 37.007812 L 0 37.007812 Z M 0 0 " fill-opacity="1" fill-rule="nonzero"/><path fill="#ffffff" d="M 0 0 L 37.007812 0 L 37.007812 37.007812 L 0 37.007812 Z M 0 0 " fill-opacity="1" fill-rule="nonzero"/></g><g clip-path="url(#13814de056)"><path fill="#000000" d="M 26.417969 25.832031 C 27.054688 27.304688 26.878906 28.835938 26.890625 30.347656 C 26.898438 31.859375 26.898438 33.367188 26.890625 34.875 C 26.882812 36 25.972656 36.746094 24.925781 36.519531 C 24.199219 36.359375 23.683594 35.726562 23.683594 34.945312 C 23.679688 32.8125 23.671875 30.679688 23.691406 28.546875 C 23.703125 27.484375 23.390625 26.5625 22.667969 25.78125 C 22.203125 25.277344 22.035156 24.703125 22.285156 24.058594 C 22.523438 23.429688 23.015625 23.140625 23.679688 23.019531 C 24.894531 22.792969 26.125 22.597656 27.296875 22.226562 C 30 21.363281 31.585938 19.4375 32.164062 16.695312 C 32.519531 15.015625 32.683594 13.316406 32.25 11.617188 C 31.972656 10.523438 31.449219 9.546875 30.675781 8.722656 C 30.109375 8.121094 29.972656 7.480469 30.253906 6.699219 C 30.671875 5.535156 30.714844 4.339844 30.40625 3.0625 C 29.984375 3.207031 29.566406 3.296875 29.199219 3.484375 C 28.261719 3.953125 27.328125 4.433594 26.433594 4.980469 C 25.835938 5.347656 25.265625 5.457031 24.585938 5.28125 C 21.308594 4.4375 18.027344 4.4375 14.746094 5.285156 C 14.082031 5.457031 13.507812 5.371094 12.933594 4.984375 C 11.8125 4.226562 10.632812 3.574219 9.324219 3.1875 C 9.207031 3.152344 9.085938 3.128906 8.9375 3.09375 C 8.695312 3.988281 8.675781 4.863281 8.839844 5.738281 C 8.914062 6.128906 9.03125 6.511719 9.152344 6.890625 C 9.347656 7.5 9.265625 8.058594 8.832031 8.527344 C 7.402344 10.066406 6.765625 11.878906 6.851562 13.960938 C 6.90625 15.402344 7.082031 16.820312 7.621094 18.167969 C 8.496094 20.359375 10.164062 21.6875 12.367188 22.355469 C 13.402344 22.667969 14.480469 22.855469 15.550781 23.039062 C 16.636719 23.226562 17.28125 23.890625 17.136719 24.871094 C 17.089844 25.183594 16.929688 25.523438 16.71875 25.757812 C 15.957031 26.621094 15.628906 27.597656 15.648438 28.742188 C 15.679688 30.796875 15.664062 32.855469 15.65625 34.914062 C 15.652344 35.859375 14.972656 36.554688 14.078125 36.566406 C 13.175781 36.578125 12.476562 35.867188 12.46875 34.90625 C 12.457031 34.007812 12.464844 33.113281 12.464844 32.265625 C 11.648438 32.265625 10.859375 32.304688 10.078125 32.257812 C 8.21875 32.136719 6.667969 31.328125 5.40625 29.984375 C 4.832031 29.378906 4.320312 28.714844 3.785156 28.070312 C 3.34375 27.539062 2.886719 27.066406 2.1875 26.828125 C 1.414062 26.558594 1.058594 25.644531 1.328125 24.871094 C 1.601562 24.078125 2.429688 23.640625 3.25 23.847656 C 4.3125 24.121094 5.140625 24.746094 5.839844 25.554688 C 6.347656 26.136719 6.835938 26.738281 7.316406 27.347656 C 8.65625 29.046875 10.410156 29.402344 12.417969 28.921875 C 12.457031 28.390625 12.460938 27.867188 12.539062 27.351562 C 12.617188 26.851562 12.765625 26.359375 12.886719 25.851562 C 12.3125 25.679688 11.710938 25.519531 11.125 25.316406 C 6.84375 23.832031 4.515625 20.753906 3.851562 16.359375 C 3.59375 14.625 3.503906 12.886719 3.90625 11.152344 C 4.226562 9.773438 4.796875 8.511719 5.640625 7.375 C 5.789062 7.179688 5.839844 7.007812 5.785156 6.761719 C 5.332031 4.785156 5.496094 2.851562 6.253906 0.96875 C 6.570312 0.1875 7.089844 -0.125 7.929688 -0.164062 C 9.910156 -0.257812 11.636719 0.5 13.265625 1.472656 C 14.042969 1.9375 14.734375 2.019531 15.605469 1.847656 C 18.574219 1.261719 21.554688 1.347656 24.511719 1.980469 C 24.855469 2.054688 25.117188 2.019531 25.417969 1.835938 C 26.886719 0.941406 28.417969 0.167969 30.140625 -0.101562 C 30.664062 -0.1875 31.214844 -0.1875 31.746094 -0.136719 C 32.382812 -0.0820312 32.820312 0.300781 33.0625 0.894531 C 33.84375 2.808594 34.019531 4.773438 33.570312 6.796875 C 33.535156 6.953125 33.574219 7.175781 33.667969 7.304688 C 35.234375 9.441406 35.84375 11.839844 35.683594 14.457031 C 35.578125 16.195312 35.308594 17.902344 34.625 19.519531 C 33.332031 22.574219 30.984375 24.445312 27.859375 25.425781 C 27.398438 25.574219 26.925781 25.691406 26.417969 25.832031 Z M 26.417969 25.832031 " fill-opacity="1" fill-rule="nonzero"/></g></svg>