<svg xmlns="http://www.w3.org/2000/svg" xmlns:xlink="http://www.w3.org/1999/xlink" width="50" zoomAndPan="magnify" viewBox="0 0 37.5 37.499999" height="50" preserveAspectRatio="xMidYMid meet" version="1.0"><defs><clipPath id="a7f532c948"><path d="M 1.058594 0 L 35.84375 0 L 35.84375 36.75 L 1.058594 36.75 Z M 1.058594 0 " clip-rule="nonzero"/></clipPath></defs><g clip-path="url(#a7f532c948)"><path fill="#4b1c71" d="M 26.484375 26.011719 C 27.125 27.492188 26.949219 29.035156 26.960938 30.558594 C 26.96875 32.078125 26.96875 33.597656 26.957031 35.117188 C 26.949219 36.246094 26.039062 37 24.992188 36.769531 C 24.257812 36.609375 23.746094 35.972656 23.742188 35.1875 C 23.738281 33.039062 23.730469 30.890625 23.753906 28.746094 C 23.765625 27.675781 23.449219 26.746094 22.726562 25.960938 C 22.261719 25.453125 22.089844 24.875 22.339844 24.226562 C 22.582031 23.59375 23.074219 23.300781 23.738281 23.179688 C 24.957031 22.953125 26.191406 22.757812 27.367188 22.378906 C 30.078125 21.511719 31.667969 19.574219 32.246094 16.8125 C 32.601562 15.121094 32.765625 13.410156 32.332031 11.699219 C 32.054688 10.597656 31.53125 9.613281 30.753906 8.785156 C 30.1875 8.179688 30.050781 7.535156 30.332031 6.75 C 30.75 5.578125 30.792969 4.371094 30.484375 3.085938 C 30.0625 3.230469 29.644531 3.320312 29.273438 3.507812 C 28.335938 3.984375 27.398438 4.464844 26.5 5.015625 C 25.902344 5.382812 25.328125 5.496094 24.648438 5.316406 C 21.359375 4.46875 18.074219 4.46875 14.78125 5.324219 C 14.113281 5.496094 13.539062 5.410156 12.964844 5.019531 C 11.839844 4.257812 10.65625 3.601562 9.34375 3.210938 C 9.226562 3.175781 9.105469 3.152344 8.960938 3.117188 C 8.714844 4.015625 8.695312 4.898438 8.863281 5.777344 C 8.933594 6.171875 9.054688 6.558594 9.175781 6.9375 C 9.371094 7.554688 9.289062 8.117188 8.851562 8.589844 C 7.417969 10.136719 6.78125 11.964844 6.867188 14.058594 C 6.921875 15.511719 7.097656 16.9375 7.640625 18.296875 C 8.515625 20.5 10.1875 21.835938 12.398438 22.507812 C 13.4375 22.824219 14.515625 23.015625 15.589844 23.199219 C 16.679688 23.386719 17.324219 24.054688 17.179688 25.042969 C 17.132812 25.359375 16.96875 25.699219 16.757812 25.9375 C 15.996094 26.804688 15.667969 27.789062 15.6875 28.941406 C 15.71875 31.011719 15.703125 33.085938 15.695312 35.15625 C 15.691406 36.109375 15.007812 36.808594 14.109375 36.820312 C 13.207031 36.832031 12.507812 36.113281 12.496094 35.148438 C 12.488281 34.246094 12.496094 33.34375 12.496094 32.488281 C 11.675781 32.488281 10.886719 32.53125 10.105469 32.480469 C 8.238281 32.359375 6.683594 31.542969 5.417969 30.191406 C 4.84375 29.582031 4.328125 28.914062 3.792969 28.265625 C 3.347656 27.730469 2.890625 27.253906 2.191406 27.011719 C 1.414062 26.746094 1.058594 25.820312 1.328125 25.042969 C 1.601562 24.242188 2.433594 23.804688 3.257812 24.015625 C 4.320312 24.289062 5.148438 24.917969 5.851562 25.730469 C 6.363281 26.320312 6.851562 26.925781 7.332031 27.539062 C 8.679688 29.25 10.433594 29.605469 12.449219 29.125 C 12.488281 28.585938 12.492188 28.058594 12.570312 27.542969 C 12.644531 27.039062 12.796875 26.542969 12.917969 26.03125 C 12.34375 25.859375 11.742188 25.695312 11.152344 25.492188 C 6.855469 23.996094 4.523438 20.898438 3.859375 16.472656 C 3.597656 14.726562 3.511719 12.976562 3.914062 11.230469 C 4.234375 9.84375 4.808594 8.570312 5.65625 7.429688 C 5.800781 7.230469 5.851562 7.058594 5.796875 6.8125 C 5.34375 4.820312 5.507812 2.875 6.269531 0.976562 C 6.585938 0.191406 7.105469 -0.125 7.949219 -0.164062 C 9.933594 -0.257812 11.664062 0.503906 13.296875 1.484375 C 14.078125 1.953125 14.769531 2.035156 15.640625 1.863281 C 18.621094 1.269531 21.609375 1.355469 24.574219 1.996094 C 24.917969 2.070312 25.179688 2.035156 25.484375 1.851562 C 26.957031 0.949219 28.488281 0.171875 30.214844 -0.101562 C 30.742188 -0.183594 31.296875 -0.1875 31.828125 -0.136719 C 32.464844 -0.078125 32.90625 0.304688 33.148438 0.902344 C 33.929688 2.832031 34.105469 4.808594 33.65625 6.847656 C 33.625 7.003906 33.664062 7.226562 33.753906 7.355469 C 35.324219 9.507812 35.9375 11.921875 35.777344 14.558594 C 35.671875 16.308594 35.402344 18.027344 34.714844 19.652344 C 33.417969 22.734375 31.0625 24.613281 27.933594 25.605469 C 27.46875 25.75 26.996094 25.867188 26.484375 26.011719 Z M 26.484375 26.011719 " fill-opacity="1" fill-rule="nonzero"/></g></svg>