<svg xmlns="http://www.w3.org/2000/svg" xmlns:xlink="http://www.w3.org/1999/xlink" width="50" zoomAndPan="magnify" viewBox="0 0 37.5 37.499999" height="50" preserveAspectRatio="xMidYMid meet" version="1.0"><path fill="#4b1c71" d="M 10.835938 0.128906 C 8.867188 0.21875 7.523438 0.535156 6.347656 0.996094 C 5.132812 1.46875 4.101562 2.105469 3.078125 3.132812 C 2.050781 4.164062 1.417969 5.195312 0.949219 6.414062 C 0.496094 7.59375 0.1875 8.9375 0.0976562 10.90625 C 0.0117188 12.878906 -0.0078125 13.507812 0 18.53125 C 0.0117188 23.554688 0.03125 24.183594 0.128906 26.15625 C 0.222656 28.125 0.535156 29.46875 0.996094 30.644531 C 1.46875 31.859375 2.105469 32.890625 3.132812 33.914062 C 4.164062 34.941406 5.195312 35.570312 6.414062 36.042969 C 7.589844 36.496094 8.9375 36.808594 10.90625 36.894531 C 12.878906 36.980469 13.507812 37 18.53125 36.988281 C 23.554688 36.980469 24.183594 36.957031 26.15625 36.863281 C 28.125 36.769531 29.464844 36.453125 30.640625 35.996094 C 31.859375 35.519531 32.890625 34.886719 33.914062 33.855469 C 34.9375 32.828125 35.570312 31.792969 36.039062 30.578125 C 36.496094 29.398438 36.804688 28.054688 36.890625 26.085938 C 36.976562 24.113281 36.996094 23.484375 36.988281 18.460938 C 36.980469 13.441406 36.957031 12.808594 36.863281 10.835938 C 36.769531 8.867188 36.457031 7.523438 35.996094 6.347656 C 35.519531 5.132812 34.886719 4.101562 33.855469 3.078125 C 32.828125 2.050781 31.792969 1.417969 30.578125 0.949219 C 29.398438 0.496094 28.054688 0.183594 26.085938 0.0976562 C 24.113281 0.0117188 23.480469 -0.0078125 18.460938 0 C 13.4375 0.0117188 12.808594 0.03125 10.835938 0.128906 M 11.050781 33.5625 C 9.25 33.484375 8.269531 33.183594 7.617188 32.933594 C 6.75 32.597656 6.136719 32.199219 5.484375 31.554688 C 4.835938 30.90625 4.4375 30.292969 4.097656 29.429688 C 3.84375 28.777344 3.539062 27.800781 3.453125 25.996094 C 3.363281 24.046875 3.339844 23.460938 3.332031 18.523438 C 3.324219 13.585938 3.339844 13.003906 3.425781 11.050781 C 3.503906 9.25 3.804688 8.269531 4.054688 7.617188 C 4.390625 6.753906 4.789062 6.136719 5.433594 5.488281 C 6.082031 4.839844 6.695312 4.4375 7.558594 4.101562 C 8.210938 3.84375 9.191406 3.542969 10.992188 3.457031 C 12.941406 3.363281 13.527344 3.34375 18.464844 3.335938 C 23.402344 3.324219 23.988281 3.339844 25.941406 3.429688 C 27.742188 3.507812 28.722656 3.804688 29.375 4.058594 C 30.238281 4.394531 30.855469 4.789062 31.503906 5.4375 C 32.152344 6.082031 32.554688 6.695312 32.890625 7.5625 C 33.144531 8.210938 33.449219 9.191406 33.535156 10.992188 C 33.625 12.941406 33.648438 13.527344 33.65625 18.464844 C 33.664062 23.402344 33.648438 23.988281 33.5625 25.9375 C 33.484375 27.738281 33.183594 28.722656 32.933594 29.375 C 32.597656 30.234375 32.199219 30.851562 31.550781 31.5 C 30.90625 32.148438 30.292969 32.550781 29.425781 32.890625 C 28.777344 33.144531 27.796875 33.445312 25.996094 33.53125 C 24.046875 33.625 23.460938 33.644531 18.523438 33.65625 C 13.585938 33.664062 13 33.644531 11.050781 33.558594 M 26.128906 8.609375 C 26.132812 9.835938 27.128906 10.828125 28.351562 10.824219 C 29.578125 10.820312 30.570312 9.824219 30.566406 8.601562 C 30.566406 7.375 29.570312 6.382812 28.34375 6.386719 C 27.117188 6.386719 26.125 7.382812 26.128906 8.609375 M 8.996094 18.515625 C 9.007812 23.757812 13.269531 28 18.511719 27.992188 C 23.757812 27.980469 28 23.722656 27.992188 18.476562 C 27.980469 13.234375 23.71875 8.988281 18.476562 8.996094 C 13.230469 9.007812 8.988281 13.269531 8.996094 18.515625 M 12.328125 18.507812 C 12.324219 15.101562 15.078125 12.335938 18.480469 12.332031 C 21.886719 12.324219 24.652344 15.078125 24.660156 18.484375 C 24.667969 21.886719 21.910156 24.65625 18.507812 24.660156 C 15.101562 24.667969 12.335938 21.910156 12.332031 18.507812 " fill-opacity="1" fill-rule="nonzero"/></svg>