<svg xmlns="http://www.w3.org/2000/svg" xmlns:xlink="http://www.w3.org/1999/xlink" width="50" zoomAndPan="magnify" viewBox="0 0 37.5 37.499999" height="50" preserveAspectRatio="xMidYMid meet" version="1.0"><defs><clipPath id="840ffb98e9"><path d="M 4.777344 0 L 32.160156 0 L 32.160156 37.007812 L 4.777344 37.007812 Z M 4.777344 0 " clip-rule="nonzero"/></clipPath></defs><g clip-path="url(#840ffb98e9)"><path fill="#4b1c71" d="M 31.445312 0 L 8.808594 0 C 8.546875 0 8.292969 0.0273438 8.039062 0.078125 C 7.785156 0.128906 7.539062 0.203125 7.300781 0.300781 C 7.0625 0.402344 6.835938 0.523438 6.621094 0.664062 C 6.40625 0.808594 6.207031 0.972656 6.023438 1.15625 C 5.84375 1.335938 5.679688 1.535156 5.535156 1.75 C 5.390625 1.964844 5.269531 2.191406 5.171875 2.429688 C 5.070312 2.667969 4.996094 2.914062 4.945312 3.167969 C 4.894531 3.421875 4.871094 3.679688 4.871094 3.9375 L 4.871094 32.011719 C 4.871094 32.441406 4.953125 32.859375 5.117188 33.257812 C 5.285156 33.660156 5.519531 34.011719 5.824219 34.320312 C 6.128906 34.625 6.484375 34.859375 6.882812 35.027344 C 7.28125 35.191406 7.699219 35.277344 8.128906 35.277344 L 10.222656 35.277344 L 10.222656 36.367188 C 10.230469 36.472656 10.257812 36.570312 10.3125 36.664062 C 10.367188 36.753906 10.441406 36.824219 10.53125 36.878906 C 10.625 36.933594 10.722656 36.964844 10.828125 36.96875 C 10.933594 36.976562 11.035156 36.957031 11.128906 36.910156 L 12.40625 36.203125 L 13.679688 36.910156 C 13.777344 36.972656 13.886719 37.003906 14 37.007812 C 14.175781 37.007812 14.328125 36.945312 14.453125 36.820312 C 14.574219 36.695312 14.636719 36.542969 14.636719 36.367188 L 14.636719 35.269531 L 31.445312 35.269531 C 31.621094 35.269531 31.769531 35.207031 31.894531 35.085938 C 32.019531 34.960938 32.082031 34.808594 32.082031 34.632812 L 32.082031 0.636719 C 32.082031 0.460938 32.019531 0.3125 31.894531 0.1875 C 31.769531 0.0625 31.621094 0 31.445312 0 Z M 6.101562 3.9375 C 6.101562 3.632812 6.152344 3.335938 6.253906 3.046875 C 6.355469 2.761719 6.5 2.496094 6.691406 2.257812 C 6.878906 2.019531 7.105469 1.820312 7.363281 1.65625 C 7.621094 1.492188 7.898438 1.378906 8.195312 1.308594 L 8.195312 28.742188 L 8.128906 28.742188 C 7.367188 28.75 6.691406 28.992188 6.101562 29.472656 Z M 13.40625 35.347656 L 12.722656 34.976562 C 12.527344 34.867188 12.332031 34.867188 12.136719 34.976562 L 11.449219 35.347656 L 11.449219 32.625 L 13.402344 32.625 Z M 30.832031 34.070312 L 14.636719 34.070312 L 14.636719 32.003906 C 14.636719 31.828125 14.574219 31.675781 14.453125 31.554688 C 14.328125 31.429688 14.175781 31.367188 14 31.367188 L 10.808594 31.367188 C 10.632812 31.367188 10.484375 31.429688 10.359375 31.554688 C 10.234375 31.675781 10.171875 31.828125 10.171875 32.003906 L 10.171875 34.039062 L 8.128906 34.039062 C 7.851562 34.054688 7.578125 34.015625 7.316406 33.917969 C 7.054688 33.824219 6.820312 33.679688 6.617188 33.488281 C 6.414062 33.292969 6.257812 33.070312 6.148438 32.8125 C 6.035156 32.554688 5.980469 32.289062 5.980469 32.007812 C 5.980469 31.726562 6.035156 31.460938 6.148438 31.203125 C 6.257812 30.945312 6.414062 30.722656 6.617188 30.527344 C 6.820312 30.335938 7.054688 30.191406 7.316406 30.097656 C 7.578125 30 7.851562 29.960938 8.128906 29.976562 L 30.832031 29.976562 Z M 30.832031 28.777344 L 9.425781 28.777344 L 9.425781 1.230469 L 30.832031 1.230469 Z M 30.832031 28.777344 " fill-opacity="1" fill-rule="nonzero"/></g><path fill="#4b1c71" d="M 12.238281 13.589844 L 26.5 13.589844 C 26.675781 13.589844 26.828125 13.527344 26.949219 13.402344 C 27.074219 13.277344 27.136719 13.128906 27.136719 12.953125 L 27.136719 7.402344 C 27.136719 7.226562 27.074219 7.074219 26.949219 6.949219 C 26.828125 6.824219 26.675781 6.761719 26.5 6.761719 L 12.238281 6.761719 C 12.0625 6.761719 11.914062 6.824219 11.789062 6.949219 C 11.664062 7.074219 11.601562 7.226562 11.601562 7.402344 L 11.601562 12.972656 C 11.605469 13.144531 11.671875 13.289062 11.792969 13.410156 C 11.917969 13.53125 12.066406 13.589844 12.238281 13.589844 Z M 12.878906 8.015625 L 25.886719 8.015625 L 25.886719 12.351562 L 12.851562 12.351562 Z M 12.878906 8.015625 " fill-opacity="1" fill-rule="nonzero"/></svg>