<svg xmlns="http://www.w3.org/2000/svg" xmlns:xlink="http://www.w3.org/1999/xlink" width="50" zoomAndPan="magnify" viewBox="0 0 37.5 37.499999" height="50" preserveAspectRatio="xMidYMid meet" version="1.0"><path fill="#4b1c71" d="M 31.273438 31.3125 L 25.835938 31.3125 L 25.835938 22.796875 C 25.835938 20.765625 25.800781 18.148438 23.007812 18.148438 C 20.214844 18.148438 19.738281 20.363281 19.738281 22.648438 L 19.738281 31.3125 L 14.300781 31.3125 L 14.300781 13.796875 L 19.523438 13.796875 L 19.523438 16.191406 L 19.59375 16.191406 C 20.660156 14.371094 22.640625 13.28125 24.746094 13.363281 C 30.257812 13.363281 31.277344 16.988281 31.277344 21.707031 L 31.277344 31.3125 Z M 8.164062 11.402344 C 6.421875 11.402344 5.011719 9.992188 5.007812 8.246094 C 5.007812 6.503906 6.421875 5.089844 8.164062 5.089844 C 9.90625 5.089844 11.320312 6.5 11.320312 8.246094 C 11.324219 9.988281 9.910156 11.402344 8.164062 11.402344 M 10.886719 31.3125 L 5.441406 31.3125 L 5.441406 13.796875 L 10.886719 13.796875 Z M 33.984375 0.0390625 L 2.710938 0.0390625 C 1.230469 0.0234375 0.015625 1.207031 0 2.6875 L 0 34.09375 C 0.015625 35.574219 1.230469 36.757812 2.710938 36.742188 L 33.988281 36.742188 C 35.46875 36.761719 36.6875 35.578125 36.707031 34.09375 L 36.707031 2.683594 C 36.683594 1.203125 35.46875 0.0195312 33.984375 0.0390625 " fill-opacity="1" fill-rule="nonzero"/></svg>