<svg xmlns="http://www.w3.org/2000/svg" xmlns:xlink="http://www.w3.org/1999/xlink" width="50" zoomAndPan="magnify" viewBox="0 0 37.5 37.499999" height="50" preserveAspectRatio="xMidYMid meet" version="1.0"><defs><clipPath id="1d573be717"><path d="M 0 0 L 37.007812 0 L 37.007812 37.007812 L 0 37.007812 Z M 0 0 " clip-rule="nonzero"/></clipPath></defs><g clip-path="url(#1d573be717)"><path fill="#4b1c71" d="M 34.105469 7.257812 L 26.847656 7.257812 L 26.847656 2.902344 C 26.847656 1.300781 25.546875 0 23.945312 0 L 13.0625 0 C 11.460938 0 10.160156 1.300781 10.160156 2.902344 L 10.160156 7.257812 L 2.902344 7.257812 C 1.300781 7.257812 0 8.558594 0 10.160156 C 0 11.417969 0 33.039062 0 34.105469 C 0 35.703125 1.300781 37.007812 2.902344 37.007812 L 34.105469 37.007812 C 35.703125 37.007812 37.007812 35.703125 37.007812 34.105469 C 37.007812 33.042969 37.007812 11.417969 37.007812 10.160156 C 37.007812 8.558594 35.703125 7.257812 34.105469 7.257812 Z M 11.609375 2.902344 C 11.609375 2.101562 12.261719 1.453125 13.0625 1.453125 L 23.945312 1.453125 C 24.746094 1.453125 25.398438 2.101562 25.398438 2.902344 L 25.398438 7.257812 L 23.945312 7.257812 L 23.945312 5.804688 C 23.945312 4.203125 22.644531 2.902344 21.042969 2.902344 L 15.964844 2.902344 C 14.363281 2.902344 13.0625 4.203125 13.0625 5.804688 L 13.0625 7.257812 L 11.609375 7.257812 Z M 22.496094 7.257812 L 14.511719 7.257812 L 14.511719 5.804688 C 14.511719 5.003906 15.164062 4.355469 15.964844 4.355469 L 21.042969 4.355469 C 21.84375 4.355469 22.496094 5.003906 22.496094 5.804688 Z M 2.902344 8.707031 C 6.207031 8.707031 30.96875 8.707031 34.105469 8.707031 C 34.90625 8.707031 35.554688 9.359375 35.554688 10.160156 L 35.554688 19.589844 C 35.554688 20.390625 34.90625 21.042969 34.105469 21.042969 L 21.769531 21.042969 L 21.769531 18.867188 C 21.769531 18.464844 21.445312 18.140625 21.042969 18.140625 L 15.964844 18.140625 C 15.5625 18.140625 15.238281 18.464844 15.238281 18.867188 L 15.238281 21.042969 L 2.902344 21.042969 C 2.101562 21.042969 1.453125 20.390625 1.453125 19.589844 L 1.453125 10.160156 C 1.453125 9.359375 2.101562 8.707031 2.902344 8.707031 Z M 16.6875 19.589844 L 20.316406 19.589844 L 20.316406 22.132812 C 20.316406 23.132812 19.503906 23.945312 18.503906 23.945312 C 17.503906 23.945312 16.6875 23.132812 16.6875 22.132812 Z M 34.105469 35.554688 L 2.902344 35.554688 C 2.101562 35.554688 1.453125 34.90625 1.453125 34.105469 L 1.453125 22.105469 C 1.878906 22.351562 2.375 22.496094 2.902344 22.496094 L 15.257812 22.496094 C 15.441406 24.125 16.824219 25.398438 18.503906 25.398438 C 20.179688 25.398438 21.566406 24.125 21.746094 22.496094 L 34.105469 22.496094 C 34.632812 22.496094 35.128906 22.351562 35.554688 22.105469 L 35.554688 34.105469 C 35.554688 34.90625 34.90625 35.554688 34.105469 35.554688 Z M 34.105469 35.554688 " fill-opacity="1" fill-rule="nonzero"/></g></svg>