<svg xmlns="http://www.w3.org/2000/svg" xmlns:xlink="http://www.w3.org/1999/xlink" width="50" zoomAndPan="magnify" viewBox="0 0 37.5 37.499999" height="50" preserveAspectRatio="xMidYMid meet" version="1.0"><path fill="#4b1c71" d="M 31.433594 5.394531 C 27.972656 1.933594 23.375 0.0234375 18.472656 0.0234375 C 8.375 0.0234375 0.15625 8.238281 0.152344 18.339844 C 0.152344 21.570312 0.996094 24.722656 2.597656 27.5 L 0 36.992188 L 9.710938 34.445312 C 12.386719 35.90625 15.402344 36.671875 18.46875 36.675781 L 18.472656 36.675781 C 28.570312 36.675781 36.792969 28.457031 36.792969 18.355469 C 36.792969 13.460938 34.890625 8.859375 31.429688 5.394531 Z M 18.472656 33.582031 L 18.46875 33.582031 C 15.738281 33.582031 13.054688 32.847656 10.71875 31.457031 L 10.160156 31.128906 L 4.398438 32.640625 L 5.9375 27.019531 L 5.574219 26.445312 C 4.050781 24.019531 3.246094 21.21875 3.246094 18.339844 C 3.25 9.945312 10.082031 3.113281 18.480469 3.113281 C 22.546875 3.113281 26.371094 4.703125 29.246094 7.582031 C 32.121094 10.457031 33.703125 14.285156 33.699219 18.351562 C 33.695312 26.75 26.863281 33.582031 18.472656 33.582031 Z M 26.828125 22.175781 C 26.371094 21.949219 24.121094 20.839844 23.699219 20.691406 C 23.277344 20.535156 22.976562 20.460938 22.667969 20.917969 C 22.363281 21.378906 21.488281 22.40625 21.21875 22.714844 C 20.953125 23.019531 20.6875 23.058594 20.226562 22.828125 C 19.769531 22.597656 18.296875 22.113281 16.546875 20.554688 C 15.183594 19.339844 14.265625 17.839844 14 17.382812 C 13.730469 16.925781 13.972656 16.675781 14.199219 16.449219 C 14.40625 16.242188 14.65625 15.914062 14.886719 15.644531 C 15.117188 15.378906 15.191406 15.1875 15.34375 14.882812 C 15.5 14.578125 15.421875 14.308594 15.304688 14.078125 C 15.191406 13.851562 14.277344 11.597656 13.894531 10.679688 C 13.523438 9.789062 13.144531 9.910156 12.867188 9.894531 C 12.597656 9.882812 12.292969 9.878906 11.988281 9.878906 C 11.683594 9.878906 11.1875 9.992188 10.765625 10.449219 C 10.347656 10.910156 9.164062 12.015625 9.164062 14.269531 C 9.164062 16.523438 10.804688 18.699219 11.035156 19.007812 C 11.265625 19.3125 14.265625 23.933594 18.855469 25.917969 C 19.949219 26.390625 20.800781 26.671875 21.464844 26.882812 C 22.5625 27.230469 23.5625 27.183594 24.347656 27.0625 C 25.230469 26.933594 27.058594 25.957031 27.4375 24.886719 C 27.820312 23.816406 27.820312 22.902344 27.707031 22.710938 C 27.589844 22.519531 27.285156 22.40625 26.828125 22.175781 Z M 26.828125 22.175781 " fill-opacity="1" fill-rule="evenodd"/></svg>